<svg height="512" width="512" xmlns="http://www.w3.org/2000/svg"><path d="m267.5360718 333.6285095c23.0762939 21.4926453 39.4855652 29.0739441 77.528656 29.0379639h89.1769409s1.0315857 17.7850647-3.0172729 25.0729675c-5.829895 10.4938354-16.2591858 17.887085-29.6087952 17.887085h-157.6914215v63.0753174h151.7086029c31.4000244-.4154358 52.9220581-3.3233337 79.203125-22.159668 15.0658264-10.7980347 35.9759521-13.9830322 37.164093-70.8251648l-.0000305-299.0701904h-77.7583008v222.9444275h-71.2337646c-30.0929871 0-45.1317444-14.318634-45.1317444-42.960022v-179.9844055h-78.8459473v185.9684753c-.6544647 29.2947388 8.4684143 52.3508911 28.5058594 71.0132141z"/><path d="m169.2950439 95.209938c-45.6383514-3.9399948-46.1894608 13.00634-40.7310944 50.1158524 7.157547 38.1363678 26.2309113 66.6500854 20.9357452 82.3556824-2.367218 7.5262451-16.5480957 10.0170288-32.830162 15.1285248-21.3245239 6.6945038-42.9627228 12.1514282-42.0401535 13.8618164 21.2517853 7.798584 47.6937943 15.9434509 54.8453674 19.0360107 13.2920074 5.553833 9.947525 18.7351074 3.7465057 28.1795349-14.3780212 23.1404419-26.8321915 37.6906128-37.3580017 53.734436-5.0127563 7.6406555-7.0277481 14.4918213-13.7257309 25.0273438-5.3505402 8.6585388-4.5912552 17.2757568-.1037674 24.54422 5.5518799 8.9924927 9.1488724 9.1488953 36.4198837 8.000824 4.259819-.2960205 11.5809402 5.3287659 5.0094147 17.2397156-12.3562469 23.5339661-7.8921509 35.6763-14.6033783 36.2536621h-66.172699c-18.6890278-.5822144-35.7826042-21.779541-40.5055771-38.8518982-8.5967951-31.0752563 9.0873528-72.3220825 37.7359734-104.7140503 11.9392586-15.6708679 22.6777039-26.4093018 17.953064-29.1152344-37.0676956-16.8716125-41.5360107-11.8075562-40.8103867-26.4245911.7024136-9.5222168 2.2033501-19.1803894 4.4531918-28.9661255 4.6264629-13.2805481 10.7194786-9.4724121 27.2863388-16.4597168 18.1218224-7.4143829 26.2227669-5.1987457 24.0755806-14.8048248-11.4389666-38.9510346-25.9155482-78.8173065-19.9021968-110.6657867 4.3205948-22.8831482 20.2642517-43.5602341 51.4238739-55.3868332l78.3744202-.0002632c2.9633179.5528831 1.4473724 10.5783386 1.4146576 21.4190941-.9660492 19.7560806 5.9931793 32.4421768-14.8908692 30.492607z"/></svg>